<?xml version="1.0" encoding="UTF-8"?>
<svg id="Layer_1" xmlns="http://www.w3.org/2000/svg" version="1.1" viewBox="0 0 110 135">
  <!-- Generator: Adobe Illustrator 29.5.0, SVG Export Plug-In . SVG Version: 2.1.0 Build 137)  -->
  <defs>
    <style>
      .st0 {
        fill-rule: evenodd;
      }
    </style>
  </defs>
  <path class="st0" d="M19.53,45.68c0-8.18,5.11-12.49,10.25-12.49s10.25,4.31,10.25,12.49c0,5.94.67,12.55,1.06,15.49.71.31,1.37.64,1.96,1,.23-.29.47-.57.72-.85.73-.8,1.55-1.52,2.44-2.15,2.48-1.75,5.51-2.79,8.78-2.79,4.45,0,8.45,1.91,11.23,4.95.02.02.04.04.05.06.28-.13.57-.26.88-.38.91-.37,2.2-.7,3.52-1,.83-.19,1.71-.37,2.56-.54.3-.06.59-.12.87-.18v-2.27c-.85-.41-1.69-1.03-2.33-1.8-.6-.71-1.05-1.59-1.14-2.55-.24-.22-.59-.55-.93-.88,0,0-.01-.01-.02-.02-.41-.44-.65-1.09-.8-1.71-.15-.64-.2-1.36-.16-2.02.04-.64.17-1.31.48-1.81.16-.26.4-.51.73-.66.04-.02.08-.03.12-.04v-2.66c0-5.13,4.05-9.13,9.13-9.13s9.13,4,9.13,9.13v2.66s.08.03.12.04c.33.14.57.39.73.66.31.5.45,1.18.48,1.81.04.66-.02,1.37-.16,2.02-.14.62-.39,1.27-.8,1.71,0,0-.02.01-.02.02-.33.33-.68.66-.92.88-.09.96-.55,1.84-1.14,2.55-.64.77-1.48,1.39-2.33,1.8v2.27c.29.06.57.12.87.18.84.18,1.73.36,2.56.54,1.33.3,2.61.62,3.52,1,1.8.73,3.25,1.59,4.33,2.68,1.57,1.59,2.29,3.58,2.29,6.07v2.49c0,1.41-.93,2.68-2.37,2.99-3.01.64-9.52,1.43-16.29,1.43-3.45,0-6.82-.2-9.69-.49-1.95,6.16-7.71,10.63-14.51,10.63s-12.68-4.56-14.57-10.81c-2.88.37-6.5.67-10.65.67-6.78,0-12.17-.79-15.17-1.43-1.43-.31-2.37-1.59-2.37-2.99v-2.49c0-2.49.71-4.48,2.29-6.07,1-1.01,2.32-1.83,3.94-2.52.38-2.94,1.06-9.55,1.06-15.49h0ZM20.01,60.58c1.37-.47,2.93-.89,4.69-1.29v-2.27c-1.79-.87-2.93-2.68-2.93-4.68v-9.46c0-.28.16-.54.42-.66.25-.12.55-.08.77.1,1.65,1.38,2.96,2.29,4.93,2.87,2,.6,4.71.88,9.18.88.4,0,.73.32.73.72v5.54c0,2-1.14,3.81-2.93,4.68v2.27c1.75.39,3.32.81,4.69,1.29-.39-3.26-.97-9.36-.97-14.9,0-7.5-4.58-11.04-8.8-11.04s-8.8,3.54-8.8,11.04c0,5.54-.58,11.64-.97,14.9h0ZM40.14,62.34c-1.46-.59-3.23-1.11-5.36-1.58-.42,2.37-2.51,4.16-5.01,4.16s-4.58-1.79-5-4.16c-2.12.48-3.9,1-5.37,1.59-1.7.68-2.95,1.46-3.84,2.36-1.26,1.27-1.87,2.87-1.87,5.05v2.49c0,.77.51,1.42,1.22,1.57,2.9.62,8.19,1.39,14.86,1.39,4,0,7.5-.28,10.29-.64-.19-.96-.29-1.96-.29-2.99,0-3.04.89-5.87,2.43-8.25-.6-.36-1.27-.68-2.04-.99-.01,0-.02,0-.03-.01h0ZM33.42,57.69l-1.92.89c-1.09.5-2.34.5-3.43,0l-1.92-.89v2.19c0,1.98,1.62,3.6,3.63,3.6s3.64-1.62,3.64-3.6v-2.19ZM69.89,74.76c2.78.27,6.02.46,9.32.46,6.68,0,13.09-.78,15.98-1.39.72-.15,1.22-.8,1.22-1.57v-2.49c0-2.18-.61-3.78-1.87-5.05-.89-.9-2.15-1.68-3.84-2.36-.79-.32-1.97-.63-3.3-.93-.82-.18-1.68-.36-2.52-.53-.23-.05-.45-.09-.68-.14-.42,2.38-2.51,4.17-5.01,4.17s-4.59-1.8-5.01-4.17c-.22.05-.45.09-.68.14-.84.17-1.69.35-2.52.53-1.33.3-2.5.61-3.3.93-.16.06-.32.13-.47.2,1.87,2.53,2.98,5.66,2.98,9.05,0,1.08-.11,2.13-.33,3.14,0,0,0,.02,0,.02h0ZM82.84,57.69l-1.92.89c-.54.25-1.12.38-1.71.38s-1.17-.12-1.71-.38l-1.92-.89v2.19c0,1.98,1.62,3.6,3.63,3.6s3.63-1.62,3.63-3.6v-2.19ZM87.98,50.13c.04-.12.07-.25.11-.39.12-.51.16-1.08.13-1.61,0-.11-.02-.21-.03-.3l-.21,2.29ZM86.81,41.77c-.53-3.78-3.7-6.57-7.61-6.57s-7.08,2.79-7.61,6.57c.28-.47.61-.92.96-1.3.49-.51,1.09-.94,1.81-1.1.73-.16,1.34-.16,1.88-.06.54.1.96.29,1.31.49.16.09.3.17.42.24.47.27.75.44,1.22.44s.75-.16,1.22-.44c.13-.07.27-.15.43-.24.35-.2.78-.39,1.31-.49.54-.1,1.14-.09,1.88.06.71.16,1.32.59,1.81,1.1.36.38.68.83.96,1.3h0ZM70.21,47.84c-.01.09-.02.2-.03.3-.03.52.02,1.1.13,1.61.03.14.07.27.11.39l-.21-2.29ZM71.52,46.25l.55,6.03s0,.04,0,.07c0,.65.3,1.33.82,1.95.52.62,1.22,1.14,1.93,1.46l3.27,1.51c.35.16.73.24,1.11.24s.75-.08,1.11-.24l3.27-1.51c.71-.32,1.41-.84,1.93-1.46.52-.62.82-1.3.82-1.95,0-.02,0-.04,0-.07l.55-6.03c-.09-.84-.47-2.14-1.07-3.29-.3-.59-.65-1.11-1.02-1.49-.37-.39-.73-.61-1.06-.68-.57-.12-.99-.12-1.31-.05-.32.06-.59.18-.88.33-.09.05-.18.1-.27.16-.5.3-1.17.7-2.07.7s-1.57-.4-2.07-.7c-.1-.06-.19-.11-.27-.16-.28-.16-.55-.27-.88-.33-.32-.06-.74-.07-1.31.05-.33.07-.69.29-1.06.68-.37.39-.72.91-1.02,1.49-.6,1.15-.97,2.45-1.07,3.29h0ZM23.22,44.38v7.96c0,1.46.85,2.8,2.18,3.41l3.27,1.51c.7.32,1.51.32,2.21,0l3.27-1.51c1.33-.61,2.18-1.95,2.18-3.41v-4.82c-4.09-.03-6.79-.31-8.87-.94-1.71-.51-2.98-1.25-4.25-2.2h0ZM55,57.82c-2.96,0-5.7.93-7.94,2.52-.8.57-1.55,1.22-2.21,1.95-.37.4-.71.82-1.03,1.27-1.62,2.26-2.59,5.04-2.59,8.04,0,.98.1,1.93.3,2.85.04.19.09.38.13.57,1.52,5.95,6.92,10.35,13.34,10.35s11.7-4.3,13.29-10.15c.07-.25.13-.51.18-.77.2-.92.3-1.87.3-2.85,0-3.37-1.21-6.46-3.22-8.85-.12-.15-.25-.3-.38-.44-2.52-2.76-6.14-4.48-10.16-4.48h0ZM47.76,65.93c0-.4.32-.73.73-.73h13.03c.4,0,.73.32.73.73v3.92c0,.4-.32.72-.73.72h-13.03c-.4,0-.73-.32-.73-.72v-3.92ZM49.21,66.65v2.47h11.59v-2.47h-11.59ZM47.76,73.77c0-.4.32-.73.73-.73h13.03c.4,0,.73.32.73.73v3.92c0,.4-.32.72-.73.72h-13.03c-.4,0-.73-.32-.73-.72v-3.92ZM49.21,74.49v2.47h11.59v-2.47h-11.59Z"/>
</svg>