<?xml version="1.0" encoding="UTF-8"?>
<svg id="Layer_1" xmlns="http://www.w3.org/2000/svg" version="1.1" viewBox="0 0 95 118.75">
  <!-- Generator: Adobe Illustrator 29.5.0, SVG Export Plug-In . SVG Version: 2.1.0 Build 137)  -->
  <path d="M47.51,85.7L12.07,50.26c-4.53-4.53-7.03-10.56-7.03-16.96,0-6.41,2.5-12.43,7.03-16.96,4.53-4.53,10.56-7.03,16.96-7.03s12.43,2.49,16.96,7.03l1.51,1.51,1.51-1.51c4.53-4.53,10.56-7.03,16.96-7.03s12.43,2.49,16.97,7.03c9.35,9.35,9.35,24.57,0,33.93l-35.44,35.44ZM29.03,11.99c-5.69,0-11.04,2.22-15.06,6.24-4.02,4.02-6.24,9.37-6.24,15.06s2.22,11.04,6.24,15.06l33.53,33.54,33.54-33.54c8.31-8.3,8.31-21.82,0-30.12-4.02-4.02-9.37-6.24-15.06-6.24s-11.04,2.22-15.06,6.24l-3.41,3.41-3.41-3.41c-4.02-4.02-9.37-6.24-15.06-6.24ZM54.67,61.81h-14.31v-7.66h-7.66v-14.3h7.66v-7.65h14.31v7.65h7.66v14.31h-7.66v7.66ZM43.05,59.12h8.93v-7.66h7.66v-8.93h-7.66v-7.65h-8.93v7.65h-7.66v8.93h7.66v7.66Z"/>
</svg>