<?xml version="1.0" encoding="UTF-8"?>
<svg id="Layer_1" xmlns="http://www.w3.org/2000/svg" version="1.1" viewBox="0 0 110 135">
  <!-- Generator: Adobe Illustrator 29.5.0, SVG Export Plug-In . SVG Version: 2.1.0 Build 137)  -->
  <defs>
    <style>
      .st0 {
        fill-rule: evenodd;
      }
    </style>
  </defs>
  <path class="st0" d="M89.57,39.91c-2.84,0-5.15,2.31-5.15,5.15v29.16c0,.27-.11.54-.3.73-1.46,1.44-2.27,3.38-2.27,5.47,0,4.26,3.46,7.72,7.72,7.72s7.72-3.47,7.72-7.74c0-2.07-.8-4.01-2.27-5.47-.19-.19-.3-.45-.3-.73v-29.14c0-2.84-2.31-5.15-5.15-5.15h0ZM89.57,90.2c-5.39,0-9.78-4.39-9.78-9.78,0-2.49.91-4.82,2.57-6.62v-28.75c0-3.97,3.23-7.21,7.21-7.21s7.21,3.23,7.21,7.21v28.73c1.66,1.81,2.57,4.14,2.57,6.61,0,5.4-4.39,9.8-9.78,9.8h0Z"/>
  <path class="st0" d="M89.57,77.44c-1.6,0-2.91,1.3-2.91,2.91s1.3,2.91,2.91,2.91,2.91-1.3,2.91-2.91-1.3-2.91-2.91-2.91ZM89.57,85.31c-2.73,0-4.96-2.23-4.96-4.96s2.23-4.96,4.96-4.96,4.96,2.23,4.96,4.96-2.23,4.96-4.96,4.96Z"/>
  <path class="st0" d="M95.73,48.11h-3.04c-.57,0-1.03-.46-1.03-1.03s.46-1.03,1.03-1.03h3.04c.57,0,1.03.46,1.03,1.03s-.46,1.03-1.03,1.03Z"/>
  <path class="st0" d="M95.73,54.43h-3.04c-.57,0-1.03-.46-1.03-1.03s.46-1.03,1.03-1.03h3.04c.57,0,1.03.46,1.03,1.03s-.46,1.03-1.03,1.03Z"/>
  <path class="st0" d="M95.73,60.73h-3.04c-.57,0-1.03-.46-1.03-1.03s.46-1.03,1.03-1.03h3.04c.57,0,1.03.46,1.03,1.03s-.46,1.03-1.03,1.03Z"/>
  <path class="st0" d="M95.73,67.06h-3.04c-.57,0-1.03-.46-1.03-1.03s.46-1.03,1.03-1.03h3.04c.57,0,1.03.46,1.03,1.03s-.46,1.03-1.03,1.03Z"/>
  <path class="st0" d="M24.39,35.92c-.26,0-.52-.1-.72-.3-1.72-1.7-2.67-3.97-2.67-6.4,0-4.95,4.03-8.98,8.98-8.98,3.9,0,7.33,2.49,8.54,6.2.18.54-.12,1.12-.66,1.3-.54.18-1.12-.12-1.3-.66-.93-2.86-3.58-4.78-6.59-4.78-3.82,0-6.93,3.11-6.93,6.93,0,1.88.73,3.63,2.06,4.94.41.4.41,1.05.01,1.45-.2.2-.46.3-.73.3h0Z"/>
  <path class="st0" d="M29.96,18.18c-.57,0-1.03-.46-1.03-1.03v-1c0-.57.46-1.03,1.03-1.03s1.03.46,1.03,1.03v1c0,.57-.46,1.03-1.03,1.03Z"/>
  <path class="st0" d="M21.41,21.7c-.26,0-.52-.1-.71-.29l-.71-.7c-.41-.39-.42-1.05-.02-1.45s1.05-.42,1.45-.02l.71.69c.41.39.41,1.05.02,1.45-.2.21-.47.31-.74.31h0Z"/>
  <path class="st0" d="M17.86,30.27h-1c-.57,0-1.03-.46-1.03-1.03s.46-1.03,1.03-1.03h1c.57,0,1.03.46,1.03,1.03s-.46,1.03-1.03,1.03Z"/>
  <path class="st0" d="M38.5,21.7c-.27,0-.54-.11-.74-.31-.39-.41-.39-1.06.02-1.45l.71-.7c.41-.39,1.06-.39,1.45.02s.39,1.06-.02,1.45l-.71.69c-.2.2-.46.29-.71.29h0Z"/>
  <path class="st0" d="M51.52,104.88c-3.46,0-6.92-.44-10.34-1.33-10.55-2.77-19.39-9.46-24.9-18.86-5.51-9.41-7.04-20.4-4.29-30.94,2.75-10.55,9.45-19.4,18.85-24.92,9.41-5.52,20.4-7.04,30.94-4.29,9.57,2.49,17.9,8.38,23.47,16.57.32.47.2,1.11-.27,1.43-.47.32-1.11.2-1.43-.27-5.29-7.78-13.21-13.37-22.29-15.73-10.01-2.61-20.44-1.17-29.38,4.07-8.93,5.24-15.29,13.65-17.91,23.66-5.39,20.67,7.04,41.89,27.72,47.31,15.48,4.03,32.12-2.02,41.38-15.04.33-.46.97-.57,1.43-.24.46.33.57.97.24,1.43-4.75,6.67-11.33,11.72-19.03,14.59-4.59,1.71-9.39,2.57-14.21,2.57h0Z"/>
  <path class="st0" d="M36.67,94.88c-.33,0-.67-.05-1-.16-1.32-.41-2.22-1.65-2.22-3.08,0-.58-.02-1.16-.04-1.78-.07-2.35-.14-4.77.81-7.01,1.45-3.42,1.64-5.86.59-7.69-.35-.61-.85-1.17-1.38-1.76-.88-.98-1.79-1.99-2.16-3.38-.49-1.81.08-3.48.64-5.11.39-1.14.77-2.23.73-3.27-.05-1.6-1.13-3.28-2.89-4.48-.29-.2-.6-.38-.93-.59-1.36-.83-2.9-1.78-3.45-3.52-.16-.52-.21-1.04-.25-1.5-.02-.18-.03-.36-.05-.52-.27-1.6-1.42-2.93-2.64-4.33-.72-.84-1.47-1.7-2.07-2.66-.59-.94-1.06-1.99-1.52-3.02l-.18-.41c-.23-.52,0-1.12.52-1.36.52-.23,1.12,0,1.36.52l.18.41c.45,1,.86,1.94,1.38,2.76.52.84,1.18,1.6,1.88,2.41,1.35,1.56,2.75,3.17,3.11,5.35,0,.01,0,.02,0,.03.03.21.05.42.06.62.04.39.07.76.16,1.06.32,1,1.41,1.68,2.57,2.39.33.2.68.41,1,.64,2.32,1.58,3.73,3.87,3.8,6.12.04,1.42-.41,2.73-.84,4-.48,1.39-.93,2.7-.6,3.89.25.92.96,1.71,1.71,2.55.58.64,1.18,1.31,1.64,2.11,1.39,2.4,1.23,5.51-.48,9.52-.78,1.82-.71,3.92-.65,6.14.02.6.04,1.23.04,1.84,0,.52.32.97.79,1.12.35.11.71.06,1.01-.13.28-.18.47-.48.52-.8,0-.04,0-.07,0-.11.34-3.1,2.79-5.82,5.83-6.46.32-.07.64-.12.96-.16.86-.13,1.6-.24,1.98-.68.25-.29.36-.75.49-1.27.12-.49.25-1.04.53-1.56.73-1.4,2.12-2.02,3.35-2.56.71-.32,1.39-.62,1.9-1.04.69-.55,1.1-1.44,1.13-2.44.03-1-.34-1.96-.99-2.55-.54-.49-1.29-.85-2.07-1.24-1.44-.7-3.07-1.5-3.61-3.31-.26-.89-.15-1.76-.05-2.53.06-.47.12-.92.09-1.33-.09-1.16-1.03-2.33-2.49-3.14-.72-.38-.97-.58-1.18-.81-.06-.04-.23-.12-.65-.3-2.22-.96-4.21-2.45-5.76-4.3-.46-.55-1.04-1.3-1.29-2.28-.63-2.45,1.32-4.82,3.48-5.61,1.08-.38,2.24-.52,3.67-.47,1.6.06,3.09-.22,4.43-.83,0,0,.02,0,.03-.01l.22-.09c.93-.45,1.75-1.24,2.61-2.07,1.33-1.29,2.7-2.62,4.71-2.86.67-.08,1.33-.03,1.97.02,1.17.09,1.91.11,2.33-.32.23-.24.25-.58.22-.82-.06-.57-.43-1.15-.9-1.45-.98-.61-2.35-.63-3.8-.59-1.61.02-3.41.05-4.95-.91-1.01-.62-1.73-1.74-1.88-2.92-.12-.96.14-1.84.76-2.5.35-.38.77-.63,1.14-.84.19-.11.37-.22.51-.33,0,0,.02-.02.03-.02-3.95-.83-7.84-2.05-10.25-4.83-.37-.43-.33-1.08.1-1.45.43-.37,1.08-.33,1.45.1,2.18,2.52,6.27,3.6,9.96,4.34.24.05.45.18.61.37.77.97.3,2.33-.6,3.08,0,0-.02.01-.02.02-.25.2-.52.36-.76.5-.27.16-.52.3-.67.47-.2.21-.27.49-.23.83.07.56.45,1.14.93,1.43,1.03.64,2.45.62,3.83.6,1.76-.05,3.47-.02,4.95.91,1,.64,1.7,1.77,1.84,2.95.11.96-.17,1.84-.79,2.49-1.12,1.16-2.7,1.04-3.96.95-.57-.04-1.11-.09-1.57-.03-1.32.16-2.39,1.2-3.52,2.3-.95.92-1.93,1.87-3.18,2.46-.02,0-.03.02-.05.02l-.23.1c-1.62.73-3.42,1.07-5.34,1-1.17-.04-2.09.07-2.91.35-1.28.46-2.5,1.88-2.18,3.16.11.44.38.89.87,1.46,1.35,1.62,3.08,2.91,5.01,3.74.86.37,1.11.52,1.36.82l.02.02s.11.1.61.36c2.08,1.15,3.41,2.93,3.56,4.78.05.62-.02,1.21-.1,1.77-.09.64-.16,1.2-.02,1.68.28.94,1.32,1.45,2.54,2.04.88.43,1.8.88,2.55,1.56,1.11,1.01,1.71,2.52,1.66,4.14-.05,1.6-.74,3.05-1.89,3.97-.72.59-1.55.96-2.36,1.32-1.05.47-1.96.87-2.36,1.64-.16.3-.25.68-.35,1.08-.16.69-.36,1.48-.93,2.14-.86,1.02-2.12,1.2-3.23,1.37-.3.04-.58.09-.84.14-2.14.45-3.94,2.43-4.2,4.62,0,.04,0,.07,0,.11-.1.97-.62,1.83-1.44,2.36-.53.35-1.14.52-1.76.52h0Z"/>
  <path class="st0" d="M68.5,80.64c-.51,0-.98-.12-1.46-.35-.87-.44-1.48-1.24-1.68-2.19-.2-.94.03-1.91.62-2.66l.02-.02s.04-.05.06-.08c1.41-1.71,1.54-4.4.32-6.27-.14-.22-.31-.44-.48-.68-.67-.9-1.42-1.93-1.34-3.28.07-.88.48-1.57.85-2.17.21-.35.42-.69.52-1.01.25-.83-.1-1.76-.52-2.84-.31-.82-.64-1.68-.73-2.61-.16-1.46.39-2.97,1.49-4.14,1.11-1.18,2.61-1.81,4.09-1.74,1.02.05,1.97.38,2.89.7,1.28.44,2.38.82,3.25.34.43-.24.78-.68,1.18-1.2.34-.45.7-.91,1.18-1.31,1.2-1.02,2.9-1.41,4.79-1.11.56.09.94.62.85,1.18-.09.56-.62.94-1.18.85-1.27-.2-2.41.04-3.13.65-.31.26-.59.62-.88,1-.47.61-1.01,1.3-1.82,1.75-1.67.9-3.39.31-4.9-.2-.83-.28-1.61-.55-2.34-.59-.87-.04-1.8.37-2.49,1.1-.69.73-1.04,1.65-.94,2.52.07.67.33,1.36.61,2.09.48,1.25,1.02,2.66.55,4.18-.18.57-.47,1.05-.73,1.47-.29.46-.53.87-.56,1.25-.04.59.44,1.23.94,1.91.18.25.37.5.55.77,1.71,2.61,1.53,6.25-.42,8.66v.02s-.05.05-.07.08c-.23.28-.31.64-.24.98.04.2.18.56.6.78.18.09.35.13.54.13.31,0,.62-.13.84-.35.41-.41.84-.81,1.26-1.2,1.64-1.54,3.2-3,3.96-4.88,1.05-2.59,2.86-6.13,6.4-7.07.79-.21,1.61-.28,2.37-.32.57-.04,1.05.4,1.08.97.03.57-.4,1.05-.97,1.08-.76.04-1.38.1-1.96.25-2.02.54-3.61,2.4-5.02,5.86-.93,2.29-2.72,3.98-4.46,5.61-.41.38-.82.77-1.22,1.16-.6.6-1.44.95-2.29.95h0Z"/>
</svg>